<?xml version="1.0" standalone="no"?>
<!DOCTYPE svg PUBLIC "-//W3C//DTD SVG 20010904//EN" "http://www.w3.org/TR/2001/REC-SVG-20010904/DTD/svg10.dtd">
<svg version="1.0" xmlns="http://www.w3.org/2000/svg" width="400.000000pt" height="120.000000pt" viewBox="0 0 400 120" preserveAspectRatio="xMidYMid meet">

<g transform="translate(0.000000,120.000000) scale(0.100000,-0.100000)" fill="#000000" stroke="none">
<!-- Original text elements from your file -->
<path d="M739 674 c-38 -16 -59 -48 -59 -89 0 -21 -5 -25 -30 -25 -28 0 -30
-3 -30 -35 0 -32 2 -35 30 -35 l30 0 0 -145 0 -145 41 0 41 0 -4 145 -3 145
38 0 c36 0 37 1 37 35 0 34 -1 35 -40 35 -45 0 -44 -1 -28 35 7 16 23 28 40
32 23 4 28 11 28 34 0 25 -4 29 -27 28 -16 0 -44 -7 -64 -15z"/>
<path d="M143 673 c-31 -4 -33 -7 -33 -44 0 -38 1 -39 35 -39 35 0 35 0 35 45
0 25 -1 44 -2 43 -2 0 -18 -3 -35 -5z"/>
<path d="M2490 630 l0 -40 40 0 40 0 0 40 0 40 -40 0 -40 0 0 -40z"/>
<path d="M110 380 l0 -180 35 0 35 0 0 180 0 180 -35 0 -35 0 0 -180z"/>
<path d="M260 380 l0 -180 34 0 34 0 4 124 c4 152 12 166 94 166 42 0 55 -4
64 -19 5 -11 10 -76 10 -145 l0 -126 40 0 40 0 0 128 c0 119 -2 130 -23 160
-40 53 -71 72 -119 72 -23 -1 -54 -7 -68 -15 -32 -18 -40 -18 -40 0 0 10 -11
15 -35 15 l-35 0 0 -180z"/>
<path d="M950 543 c-81 -53 -99 -98 -85 -208 5 -44 13 -61 41 -89 40 -40 81
-51 161 -43 59 6 93 28 119 80 14 27 14 27 -19 27 -19 0 -46 -9 -60 -20 -37
-29 -79 -35 -119 -16 -34 16 -63 57 -51 70 4 3 66 6 140 6 l133 0 0 30 c0 66
-54 147 -113 169 -41 16 -118 12 -147 -6z m159 -79 c38 -48 30 -54 -74 -54
-60 0 -95 4 -95 10 0 6 7 24 15 40 15 28 19 30 75 30 51 0 61 -3 79 -26z"/>
<path d="M1270 380 l0 -180 35 0 35 0 0 108 0 108 34 37 c22 24 43 37 59 37
18 0 27 7 31 25 4 14 4 30 1 35 -10 16 -48 11 -83 -10 -40 -25 -42 -25 -42 0
0 16 -7 20 -35 20 l-35 0 0 -180z"/>
<path d="M1572 534 c-77 -46 -103 -148 -61 -244 30 -69 57 -85 150 -85 50 0
82 5 92 14 15 12 17 11 17 -3 0 -12 9 -16 35 -16 l35 0 0 180 0 180 -35 0
c-24 0 -35 -5 -35 -15 0 -18 -8 -18 -40 0 -40 23 -109 18 -158 -11z m167 -68
c25 -26 38 -96 27 -138 -7 -31 -65 -68 -103 -68 -22 0 -42 10 -67 34 -30 28
-36 40 -36 75 0 81 34 121 105 121 42 0 56 -5 74 -24z"/>
<path d="M2140 535 c-39 -28 -80 -104 -80 -149 0 -53 31 -130 63 -156 27 -22
41 -25 108 -25 50 0 82 5 92 14 15 12 17 11 17 -3 0 -12 9 -16 35 -16 l35 0 0
180 0 180 -35 0 c-19 0 -34 -3 -34 -7 3 -21 -4 -22 -37 -8 -55 23 -122 19
-164 -10z m159 -55 c20 -10 29 -27 41 -78 27 -111 -94 -185 -177 -108 -24 22
-28 34 -28 79 0 38 6 60 23 85 21 29 28 32 73 32 28 0 58 -4 68 -10z"/>
<path d="M2495 528 c2 -18 3 -99 4 -180 l1 -148 29 0 c17 0 31 6 35 16 3 9 6
90 6 180 l0 164 -39 0 c-37 0 -38 -1 -36 -32z"/>
<path d="M1917 283 c-4 -3 -7 -24 -7 -45 l0 -38 45 0 45 0 0 45 0 45 -38 0
c-21 0 -42 -3 -45 -7z"/>

<!-- Modern abstract logo beside the text -->
<g transform="translate(2900, 500) scale(1.2)">
  <!-- Circle base -->
  <path d="M0 0 a50 50 0 1 0 100 0 a50 50 0 1 0 -100 0" fill="#4a6bff"/>
  
  <!-- Abstract shape inside circle -->
  <path d="M30 -20 L70 -20 L80 0 L60 20 L40 20 L20 0 Z" fill="#ffffff"/>
  <path d="M30 10 L50 30 L70 10 L60 -10 L40 -10 Z" fill="#ffffff" opacity="0.8"/>
  
  <!-- Radiating lines -->
  <path d="M50 -50 L50 -30 M50 30 L50 50 M-30 50 L-50 50 M30 -50 L10 -50" stroke="#ffffff" stroke-width="4"/>
</g>
</g>

<!-- Adding the word "Infera" in text form for reference -->
<text x="290" y="70" font-family="'Arial', sans-serif" font-size="24" fill="#333">Infera</text>

</svg>